<svg width="16" height="16" fill="none" xmlns="http://www.w3.org/2000/svg">
  <g clip-path="url(#brush-blur-compact__a)">
    <path fill-rule="evenodd" clip-rule="evenodd" d="M.85 8a7.15 7.15 0 1 1 14.3 0A7.15 7.15 0 0 1 .85 8ZM8 2.15a5.85 5.85 0 1 0 0 11.7 5.85 5.85 0 0 0 0-11.7ZM5.5 6.5a.65.65 0 1 0 0 1.3.65.65 0 0 0 0-1.3ZM8 6.5a.65.65 0 1 0 0 1.3.65.65 0 0 0 0-1.3Zm2.5 0a.65.65 0 1 0 0 1.3.65.65 0 0 0 0-1.3ZM5.5 8.8a.65.65 0 1 0 0 1.3.65.65 0 0 0 0-1.3ZM8 8.8a.65.65 0 1 0 0 1.3.65.65 0 0 0 0-1.3Zm2.5 0a.65.65 0 1 0 0 1.3.65.65 0 0 0 0-1.3Z" fill="#000"/>
  </g>
  <defs>
    <clipPath id="brush-blur-compact__a">
      <path fill="#fff" d="M0 0h16v16H0z"/>
    </clipPath>
  </defs>
</svg>
